<mxfile host="app.diagrams.net" modified="2021-02-04T06:53:24.510Z" agent="5.0 (Windows NT 10.0; WOW64) AppleWebKit/537.36 (KHTML, like Gecko) Chrome/65.0.3325.181 Safari/537.36" etag="K3n6uEpcHHvnRDo54ndh" version="14.2.9" type="github">
  <diagram id="wFE0QG_FPsp0jaGvCLVb" name="Page-1">
    <mxGraphModel dx="713" dy="412" grid="1" gridSize="10" guides="1" tooltips="1" connect="1" arrows="1" fold="1" page="1" pageScale="1" pageWidth="850" pageHeight="1100" math="0" shadow="0">
      <root>
        <mxCell id="0" />
        <mxCell id="1" parent="0" />
        <mxCell id="Ps379T2DEMAQOAS2OMpo-2" value="展现层" style="shape=dataStorage;whiteSpace=wrap;html=1;fixedSize=1;fillColor=#CCFFFF;" vertex="1" parent="1">
          <mxGeometry x="270" y="110" width="100" height="80" as="geometry" />
        </mxCell>
        <mxCell id="Ps379T2DEMAQOAS2OMpo-4" value="通讯层" style="shape=dataStorage;whiteSpace=wrap;html=1;fixedSize=1;fillColor=#33FF33;" vertex="1" parent="1">
          <mxGeometry x="270" y="228" width="100" height="80" as="geometry" />
        </mxCell>
        <mxCell id="Ps379T2DEMAQOAS2OMpo-9" value="服务层" style="shape=dataStorage;whiteSpace=wrap;html=1;fixedSize=1;fillColor=#FF00FF;" vertex="1" parent="1">
          <mxGeometry x="270" y="320" width="100" height="160" as="geometry" />
        </mxCell>
        <mxCell id="Ps379T2DEMAQOAS2OMpo-10" value="数据输入源" style="shape=dataStorage;whiteSpace=wrap;html=1;fixedSize=1;fillColor=#006633;" vertex="1" parent="1">
          <mxGeometry x="270" y="493" width="100" height="80" as="geometry" />
        </mxCell>
        <mxCell id="Ps379T2DEMAQOAS2OMpo-38" value="神瞳clos（web）" style="ellipse;shape=cloud;whiteSpace=wrap;html=1;fontSize=12;fillColor=#CCCCFF;" vertex="1" parent="1">
          <mxGeometry x="456" y="110" width="264" height="80" as="geometry" />
        </mxCell>
        <mxCell id="Ps379T2DEMAQOAS2OMpo-43" value="" style="rounded=0;whiteSpace=wrap;html=1;fontSize=12;fillColor=#33FF33;" vertex="1" parent="1">
          <mxGeometry x="399" y="228" width="400" height="80" as="geometry" />
        </mxCell>
        <mxCell id="Ps379T2DEMAQOAS2OMpo-44" value="&lt;span&gt;alter&lt;/span&gt;&lt;br&gt;&lt;br&gt;&lt;span&gt;(http/https)&lt;/span&gt;" style="rounded=0;whiteSpace=wrap;html=1;fontSize=12;fillColor=#66FFFF;" vertex="1" parent="1">
          <mxGeometry x="406" y="238" width="120" height="60" as="geometry" />
        </mxCell>
        <mxCell id="Ps379T2DEMAQOAS2OMpo-45" value="&lt;p style=&quot;line-height: 15.6px&quot;&gt;portal&lt;/p&gt;&lt;p style=&quot;line-height: 15.6px&quot;&gt;（grpc/websocket）&lt;/p&gt;" style="rounded=0;whiteSpace=wrap;html=1;fontSize=12;fillColor=#33FFFF;" vertex="1" parent="1">
          <mxGeometry x="540" y="238" width="120" height="60" as="geometry" />
        </mxCell>
        <mxCell id="Ps379T2DEMAQOAS2OMpo-46" value="其他业务服务&lt;br&gt;（对外服务接口）" style="rounded=0;whiteSpace=wrap;html=1;fontSize=12;fillColor=#00FFFF;" vertex="1" parent="1">
          <mxGeometry x="670" y="238" width="120" height="60" as="geometry" />
        </mxCell>
        <mxCell id="Ps379T2DEMAQOAS2OMpo-52" value="" style="rounded=0;whiteSpace=wrap;html=1;labelBackgroundColor=#33FF99;fillColor=#FF00FF;" vertex="1" parent="1">
          <mxGeometry x="400" y="320" width="400" height="160" as="geometry" />
        </mxCell>
        <mxCell id="Ps379T2DEMAQOAS2OMpo-53" value="" style="rounded=0;whiteSpace=wrap;html=1;fillColor=#B266FF;" vertex="1" parent="1">
          <mxGeometry x="400" y="440" width="400" height="40" as="geometry" />
        </mxCell>
        <mxCell id="Ps379T2DEMAQOAS2OMpo-54" value="sql" style="rounded=0;whiteSpace=wrap;html=1;" vertex="1" parent="1">
          <mxGeometry x="436" y="450" width="60" height="20" as="geometry" />
        </mxCell>
        <mxCell id="Ps379T2DEMAQOAS2OMpo-55" value="DB" style="rounded=0;whiteSpace=wrap;html=1;fillColor=#99FF99;" vertex="1" parent="1">
          <mxGeometry x="400" y="440" width="20" height="40" as="geometry" />
        </mxCell>
        <mxCell id="Ps379T2DEMAQOAS2OMpo-56" value="redis" style="rounded=0;whiteSpace=wrap;html=1;" vertex="1" parent="1">
          <mxGeometry x="558" y="450" width="60" height="20" as="geometry" />
        </mxCell>
        <mxCell id="Ps379T2DEMAQOAS2OMpo-57" value="seaweedfs" style="rounded=0;whiteSpace=wrap;html=1;" vertex="1" parent="1">
          <mxGeometry x="697" y="450" width="60" height="20" as="geometry" />
        </mxCell>
        <mxCell id="Ps379T2DEMAQOAS2OMpo-58" value="" style="rounded=0;whiteSpace=wrap;html=1;fontSize=12;" vertex="1" parent="1">
          <mxGeometry x="400" y="320" width="100" height="80" as="geometry" />
        </mxCell>
        <mxCell id="Ps379T2DEMAQOAS2OMpo-59" value="接入代理" style="rounded=0;whiteSpace=wrap;html=1;fontSize=12;fillColor=#99FF99;" vertex="1" parent="1">
          <mxGeometry x="400" y="320" width="20" height="80" as="geometry" />
        </mxCell>
        <mxCell id="Ps379T2DEMAQOAS2OMpo-60" value="私有tcp协议" style="rounded=0;whiteSpace=wrap;html=1;fontSize=12;fillColor=#CCFFCC;" vertex="1" parent="1">
          <mxGeometry x="420" y="320" width="80" height="20" as="geometry" />
        </mxCell>
        <mxCell id="Ps379T2DEMAQOAS2OMpo-61" value="http协议" style="rounded=0;whiteSpace=wrap;html=1;fontSize=12;fillColor=#CCFFCC;" vertex="1" parent="1">
          <mxGeometry x="420" y="340" width="80" height="20" as="geometry" />
        </mxCell>
        <mxCell id="Ps379T2DEMAQOAS2OMpo-62" value="ftps协议" style="rounded=0;whiteSpace=wrap;html=1;fontSize=12;fillColor=#CCFFCC;" vertex="1" parent="1">
          <mxGeometry x="420" y="360" width="80" height="20" as="geometry" />
        </mxCell>
        <mxCell id="Ps379T2DEMAQOAS2OMpo-63" value="......." style="rounded=0;whiteSpace=wrap;html=1;fontSize=12;fillColor=#CCFFCC;" vertex="1" parent="1">
          <mxGeometry x="420" y="380" width="80" height="20" as="geometry" />
        </mxCell>
        <mxCell id="Ps379T2DEMAQOAS2OMpo-64" value="业务驱动服务" style="rounded=0;whiteSpace=wrap;html=1;fontSize=12;fillColor=#99FF99;" vertex="1" parent="1">
          <mxGeometry x="529" y="320" width="120" height="20" as="geometry" />
        </mxCell>
        <mxCell id="Ps379T2DEMAQOAS2OMpo-65" value="" style="rounded=0;whiteSpace=wrap;html=1;fontSize=12;align=center;fillColor=#99FF99;" vertex="1" parent="1">
          <mxGeometry x="529" y="350" width="120" height="50" as="geometry" />
        </mxCell>
        <mxCell id="Ps379T2DEMAQOAS2OMpo-66" value="&lt;span&gt;业务集群&lt;/span&gt;" style="text;html=1;align=center;verticalAlign=middle;resizable=0;points=[];autosize=1;fontSize=12;" vertex="1" parent="1">
          <mxGeometry x="558" y="350" width="60" height="20" as="geometry" />
        </mxCell>
        <mxCell id="Ps379T2DEMAQOAS2OMpo-67" value="XRCD" style="rounded=0;whiteSpace=wrap;html=1;fontSize=12;fillColor=#CCFFCC;" vertex="1" parent="1">
          <mxGeometry x="529" y="370" width="60" height="15" as="geometry" />
        </mxCell>
        <mxCell id="Ps379T2DEMAQOAS2OMpo-68" value="DWSR" style="rounded=0;whiteSpace=wrap;html=1;fontSize=12;fillColor=#CCFFCC;" vertex="1" parent="1">
          <mxGeometry x="589" y="370" width="60" height="15" as="geometry" />
        </mxCell>
        <mxCell id="Ps379T2DEMAQOAS2OMpo-69" value="BKPD" style="rounded=0;whiteSpace=wrap;html=1;fontSize=12;fillColor=#CCFFCC;" vertex="1" parent="1">
          <mxGeometry x="529" y="385" width="60" height="15" as="geometry" />
        </mxCell>
        <mxCell id="Ps379T2DEMAQOAS2OMpo-70" value="....." style="rounded=0;whiteSpace=wrap;html=1;fontSize=12;fillColor=#CCFFCC;" vertex="1" parent="1">
          <mxGeometry x="589" y="385" width="60" height="15" as="geometry" />
        </mxCell>
        <mxCell id="Ps379T2DEMAQOAS2OMpo-71" value="" style="rounded=0;whiteSpace=wrap;html=1;fontSize=12;fillColor=#99FF99;" vertex="1" parent="1">
          <mxGeometry x="680" y="320" width="120" height="80" as="geometry" />
        </mxCell>
        <mxCell id="Ps379T2DEMAQOAS2OMpo-72" value="&lt;span&gt;算法引擎&lt;/span&gt;" style="text;html=1;align=center;verticalAlign=middle;resizable=0;points=[];autosize=1;fontSize=12;" vertex="1" parent="1">
          <mxGeometry x="709" y="320" width="60" height="20" as="geometry" />
        </mxCell>
        <mxCell id="Ps379T2DEMAQOAS2OMpo-73" value="openvino" style="rounded=0;whiteSpace=wrap;html=1;fontSize=12;fillColor=#CCFFCC;" vertex="1" parent="1">
          <mxGeometry x="680" y="375" width="60" height="25" as="geometry" />
        </mxCell>
        <mxCell id="Ps379T2DEMAQOAS2OMpo-74" value="tf-serving" style="rounded=0;whiteSpace=wrap;html=1;fontSize=12;fillColor=#CCFFCC;" vertex="1" parent="1">
          <mxGeometry x="740" y="375" width="60" height="25" as="geometry" />
        </mxCell>
        <mxCell id="Ps379T2DEMAQOAS2OMpo-75" value="TensorRT" style="rounded=0;whiteSpace=wrap;html=1;fontSize=12;fillColor=#CCFFCC;" vertex="1" parent="1">
          <mxGeometry x="680" y="350" width="60" height="25" as="geometry" />
        </mxCell>
        <mxCell id="Ps379T2DEMAQOAS2OMpo-76" value="triton" style="rounded=0;whiteSpace=wrap;html=1;fontSize=12;fillColor=#CCFFCC;" vertex="1" parent="1">
          <mxGeometry x="740" y="350" width="60" height="25" as="geometry" />
        </mxCell>
        <mxCell id="Ps379T2DEMAQOAS2OMpo-77" value="存储网关" style="rounded=0;whiteSpace=wrap;html=1;fontSize=12;fillColor=#3333FF;" vertex="1" parent="1">
          <mxGeometry x="400" y="413" width="400" height="20" as="geometry" />
        </mxCell>
        <mxCell id="Ps379T2DEMAQOAS2OMpo-85" value="" style="rounded=0;whiteSpace=wrap;html=1;labelBackgroundColor=#33FF99;fillColor=#006633;" vertex="1" parent="1">
          <mxGeometry x="400" y="493" width="400" height="77" as="geometry" />
        </mxCell>
        <mxCell id="Ps379T2DEMAQOAS2OMpo-86" value="场地工业相机" style="rounded=0;whiteSpace=wrap;html=1;fontSize=12;fillColor=#CC99FF;" vertex="1" parent="1">
          <mxGeometry x="400" y="503" width="120" height="60" as="geometry" />
        </mxCell>
        <mxCell id="Ps379T2DEMAQOAS2OMpo-87" value="场地安检机" style="rounded=0;whiteSpace=wrap;html=1;fontSize=12;fillColor=#CC99FF;" vertex="1" parent="1">
          <mxGeometry x="544" y="503" width="120" height="60" as="geometry" />
        </mxCell>
        <mxCell id="Ps379T2DEMAQOAS2OMpo-88" value="其他服务请求" style="rounded=0;whiteSpace=wrap;html=1;fontSize=12;fillColor=#CC99FF;" vertex="1" parent="1">
          <mxGeometry x="680" y="503" width="120" height="60" as="geometry" />
        </mxCell>
      </root>
    </mxGraphModel>
  </diagram>
</mxfile>
